<?xml version="1.0" standalone="no"?>
<!DOCTYPE svg PUBLIC "-//W3C//DTD SVG 20010904//EN"
 "http://www.w3.org/TR/2001/REC-SVG-20010904/DTD/svg10.dtd">
<svg version="1.0" xmlns="http://www.w3.org/2000/svg"
 width="260.000000pt" height="260.000000pt" viewBox="0 0 260.000000 260.000000"
 preserveAspectRatio="xMidYMid meet">
<metadata>
Created by potrace 1.11, written by Peter Selinger 2001-2013
</metadata>
<g transform="translate(0.000000,260.000000) scale(0.100000,-0.100000)"
fill="#000000" stroke="none">
<path d="M1195 2584 c-207 -30 -309 -58 -444 -120 -245 -113 -487 -352 -606
-599 -90 -186 -129 -355 -129 -565 0 -347 120 -642 362 -892 252 -260 562
-392 922 -392 360 0 670 132 922 392 242 250 362 545 362 892 0 360 -132 670
-392 922 -240 232 -520 350 -857 362 -60 3 -123 2 -140 0z m639 -499 c102 -18
175 -54 229 -115 52 -58 72 -118 64 -191 -25 -213 -308 -378 -786 -458 -149
-25 -154 -27 -178 -58 -30 -38 -33 -36 90 -52 117 -16 301 -63 379 -99 306
-139 205 -413 -217 -587 -256 -106 -501 -122 -662 -44 -141 68 -178 196 -104
355 28 59 137 226 197 302 l27 32 -34 0 c-86 0 -149 41 -149 97 0 50 27 61
201 84 l154 20 44 52 c71 83 187 191 244 225 71 42 207 78 207 53 0 -5 -57
-72 -126 -150 -70 -78 -124 -144 -122 -146 2 -3 58 4 124 15 377 63 548 154
531 283 -7 53 -48 94 -117 115 -82 25 -319 23 -470 -6 -133 -25 -318 -75 -363
-99 -29 -15 -30 -17 -14 -27 50 -30 53 -35 34 -50 -41 -32 -355 -119 -408
-114 -71 7 -62 66 30 205 67 103 142 182 197 208 90 42 421 121 632 150 129
17 269 17 366 0z"/>
<path d="M985 1045 c-89 -106 -125 -165 -125 -205 0 -39 39 -91 90 -120 40
-22 56 -25 150 -25 279 1 569 177 483 293 -48 65 -154 98 -478 147 l-40 6 -80
-96z"/>
</g>
</svg>
